HIERARCHY
ROOT Character1_Hips
{
	OFFSET 0.000000 86.858185 1.182688
	CHANNELS 6 Xposition Yposition Zposition Xrotation Yrotation Zrotation
	JOINT Character1_LeftUpLeg
	{
		OFFSET 7.276832 -6.057800 0.207883
		CHANNELS 6 Xposition Yposition Zposition Xrotation Yrotation Zrotation
		JOINT Character1_LeftLeg
		{
			OFFSET -1.823140 -35.110466 -1.568847
			CHANNELS 6 Xposition Yposition Zposition Xrotation Yrotation Zrotation
			JOINT Character1_LeftFoot
			{
				OFFSET -1.031196 -37.817070 -1.726818
				CHANNELS 6 Xposition Yposition Zposition Xrotation Yrotation Zrotation
				JOINT Character1_LeftToeBase
				{
					OFFSET 0.202457 -5.287532 8.122427
					CHANNELS 6 Xposition Yposition Zposition Xrotation Yrotation Zrotation
					End Site
					{
						OFFSET 0.009223 0.000047 9.693953
					}
				}
			}
		}
	}
	JOINT Character1_RightUpLeg
	{
		OFFSET -7.276832 -6.057770 0.207879
		CHANNELS 6 Xposition Yposition Zposition Xrotation Yrotation Zrotation
		JOINT Character1_RightLeg
		{
			OFFSET 1.823196 -35.109627 -1.587624
			CHANNELS 6 Xposition Yposition Zposition Xrotation Yrotation Zrotation
			JOINT Character1_RightFoot
			{
				OFFSET 1.031267 -37.817833 -1.710079
				CHANNELS 6 Xposition Yposition Zposition Xrotation Yrotation Zrotation
				JOINT Character1_RightToeBase
				{
					OFFSET -0.202449 -5.287759 8.122276
					CHANNELS 6 Xposition Yposition Zposition Xrotation Yrotation Zrotation
					End Site
					{
						OFFSET 0.001154 -0.000006 9.693956
					}
				}
			}
		}
	}
	JOINT Character1_Spine
	{
		OFFSET -0.000001 2.271347 0.818150
		CHANNELS 6 Xposition Yposition Zposition Xrotation Yrotation Zrotation
		JOINT Character1_Spine1
		{
			OFFSET -0.000001 9.085945 0.955446
			CHANNELS 6 Xposition Yposition Zposition Xrotation Yrotation Zrotation
			JOINT Character1_Spine2
			{
				OFFSET -0.000002 8.765564 -0.142866
				CHANNELS 6 Xposition Yposition Zposition Xrotation Yrotation Zrotation
				JOINT Character1_LeftShoulder
				{
					OFFSET 4.211487 11.612236 -3.873799
					CHANNELS 6 Xposition Yposition Zposition Xrotation Yrotation Zrotation
					JOINT Character1_LeftArm
					{
						OFFSET 5.543700 0.000031 -0.000005
						CHANNELS 6 Xposition Yposition Zposition Xrotation Yrotation Zrotation
						JOINT Character1_LeftForeArm
						{
							OFFSET 23.377409 -0.123474 0.033367
							CHANNELS 6 Xposition Yposition Zposition Xrotation Yrotation Zrotation
							JOINT Character1_LeftHand
							{
								OFFSET 16.247719 -0.118858 0.035829
								CHANNELS 6 Xposition Yposition Zposition Xrotation Yrotation Zrotation
								JOINT Character1_LeftHandThumb1
								{
									OFFSET 2.510399 -0.904045 2.091601
									CHANNELS 6 Xposition Yposition Zposition Xrotation Yrotation Zrotation
									JOINT Character1_LeftHandThumb2
									{
										OFFSET 2.570465 -1.130470 1.584520
										CHANNELS 6 Xposition Yposition Zposition Xrotation Yrotation Zrotation
										JOINT Character1_LeftHandThumb3
										{
											OFFSET 1.420841 -0.605858 0.842600
											CHANNELS 6 Xposition Yposition Zposition Xrotation Yrotation Zrotation
											JOINT Character1_LeftHandThumb4
											{
												OFFSET 2.153469 -0.757797 1.312965
												CHANNELS 6 Xposition Yposition Zposition Xrotation Yrotation Zrotation
												End Site
												{
													OFFSET 2.158772 -0.733734 1.317914
												}
											}
										}
									}
								}
								JOINT Character1_LeftHandIndex1
								{
									OFFSET 8.043888 0.989311 2.480770
									CHANNELS 6 Xposition Yposition Zposition Xrotation Yrotation Zrotation
									JOINT Character1_LeftHandIndex2
									{
										OFFSET 2.427021 0.011856 0.268371
										CHANNELS 6 Xposition Yposition Zposition Xrotation Yrotation Zrotation
										JOINT Character1_LeftHandIndex3
										{
											OFFSET 1.609932 0.007866 0.037315
											CHANNELS 6 Xposition Yposition Zposition Xrotation Yrotation Zrotation
											JOINT Character1_LeftHandIndex4
											{
												OFFSET 2.130016 0.049431 0.114431
												CHANNELS 6 Xposition Yposition Zposition Xrotation Yrotation Zrotation
												End Site
												{
													OFFSET 2.119099 0.211617 -0.131005
												}
											}
										}
									}
								}
								JOINT Character1_LeftHandMiddle1
								{
									OFFSET 8.038177 1.007423 0.439338
									CHANNELS 6 Xposition Yposition Zposition Xrotation Yrotation Zrotation
									JOINT Character1_LeftHandMiddle2
									{
										OFFSET 2.527046 -0.234444 -0.080977
										CHANNELS 6 Xposition Yposition Zposition Xrotation Yrotation Zrotation
										JOINT Character1_LeftHandMiddle3
										{
											OFFSET 1.931313 -0.179352 -0.117768
											CHANNELS 6 Xposition Yposition Zposition Xrotation Yrotation Zrotation
											JOINT Character1_LeftHandMiddle4
											{
												OFFSET 2.196999 0.041229 -0.161456
												CHANNELS 6 Xposition Yposition Zposition Xrotation Yrotation Zrotation
												End Site
												{
													OFFSET 2.197571 -0.071640 -0.141814
												}
											}
										}
									}
								}
								JOINT Character1_LeftHandRing1
								{
									OFFSET 7.662090 0.616508 -1.366725
									CHANNELS 6 Xposition Yposition Zposition Xrotation Yrotation Zrotation
									JOINT Character1_LeftHandRing2
									{
										OFFSET 2.249855 -0.592636 -0.461933
										CHANNELS 6 Xposition Yposition Zposition Xrotation Yrotation Zrotation
										JOINT Character1_LeftHandRing3
										{
											OFFSET 1.521790 -0.400856 -0.248318
											CHANNELS 6 Xposition Yposition Zposition Xrotation Yrotation Zrotation
											JOINT Character1_LeftHandRing4
											{
												OFFSET 2.446365 -0.396080 -0.528466
												CHANNELS 6 Xposition Yposition Zposition Xrotation Yrotation Zrotation
												End Site
												{
													OFFSET 2.437840 -0.527443 -0.446790
												}
											}
										}
									}
								}
								JOINT Character1_LeftHandPinky1
								{
									OFFSET 6.585136 -0.139000 -2.766160
									CHANNELS 6 Xposition Yposition Zposition Xrotation Yrotation Zrotation
									JOINT Character1_LeftHandPinky2
									{
										OFFSET 1.631428 -0.600632 -0.502815
										CHANNELS 6 Xposition Yposition Zposition Xrotation Yrotation Zrotation
										JOINT Character1_LeftHandPinky3
										{
											OFFSET 1.227242 -0.468956 -0.457904
											CHANNELS 6 Xposition Yposition Zposition Xrotation Yrotation Zrotation
											JOINT Character1_LeftHandPinky4
											{
												OFFSET 1.696033 -0.584229 -0.687828
												CHANNELS 6 Xposition Yposition Zposition Xrotation Yrotation Zrotation
												End Site
												{
													OFFSET 1.705387 -0.567787 -0.678411
												}
											}
										}
									}
								}
							}
						}
					}
				}
				JOINT Character1_RightShoulder
				{
					OFFSET -4.211487 11.612236 -3.873799
					CHANNELS 6 Xposition Yposition Zposition Xrotation Yrotation Zrotation
					JOINT Character1_RightArm
					{
						OFFSET -5.543744 0.000023 -0.000004
						CHANNELS 6 Xposition Yposition Zposition Xrotation Yrotation Zrotation
						JOINT Character1_RightForeArm
						{
							OFFSET -23.377581 -0.123566 0.033386
							CHANNELS 6 Xposition Yposition Zposition Xrotation Yrotation Zrotation
							JOINT Character1_RightHand
							{
								OFFSET -16.247574 -0.118851 0.036247
								CHANNELS 6 Xposition Yposition Zposition Xrotation Yrotation Zrotation
								JOINT Character1_RightHandThumb1
								{
									OFFSET -2.510384 -0.904091 2.091566
									CHANNELS 6 Xposition Yposition Zposition Xrotation Yrotation Zrotation
									JOINT Character1_RightHandThumb2
									{
										OFFSET -2.579426 -1.121681 1.537416
										CHANNELS 6 Xposition Yposition Zposition Xrotation Yrotation Zrotation
										JOINT Character1_RightHandThumb3
										{
											OFFSET -1.429546 -0.616760 0.819528
											CHANNELS 6 Xposition Yposition Zposition Xrotation Yrotation Zrotation
											JOINT Character1_RightHandThumb4
											{
												OFFSET -2.167622 -0.774658 1.279505
												CHANNELS 6 Xposition Yposition Zposition Xrotation Yrotation Zrotation
												End Site
												{
													OFFSET -2.137974 -0.606712 1.413074
												}
											}
										}
									}
								}
								JOINT Character1_RightHandIndex1
								{
									OFFSET -8.043800 0.988876 2.481294
									CHANNELS 6 Xposition Yposition Zposition Xrotation Yrotation Zrotation
									JOINT Character1_RightHandIndex2
									{
										OFFSET -2.426987 0.011948 0.268470
										CHANNELS 6 Xposition Yposition Zposition Xrotation Yrotation Zrotation
										JOINT Character1_RightHandIndex3
										{
											OFFSET -1.609989 0.007927 0.037374
											CHANNELS 6 Xposition Yposition Zposition Xrotation Yrotation Zrotation
											JOINT Character1_RightHandIndex4
											{
												OFFSET -2.129982 0.049034 0.114512
												CHANNELS 6 Xposition Yposition Zposition Xrotation Yrotation Zrotation
												End Site
												{
													OFFSET -2.123772 0.204735 0.006035
												}
											}
										}
									}
								}
								JOINT Character1_RightHandMiddle1
								{
									OFFSET -8.038174 1.006859 0.439860
									CHANNELS 6 Xposition Yposition Zposition Xrotation Yrotation Zrotation
									JOINT Character1_RightHandMiddle2
									{
										OFFSET -2.526997 -0.234062 -0.080875
										CHANNELS 6 Xposition Yposition Zposition Xrotation Yrotation Zrotation
										JOINT Character1_RightHandMiddle3
										{
											OFFSET -1.931465 -0.179070 -0.117694
											CHANNELS 6 Xposition Yposition Zposition Xrotation Yrotation Zrotation
											JOINT Character1_RightHandMiddle4
											{
												OFFSET -2.196987 0.042816 -0.161370
												CHANNELS 6 Xposition Yposition Zposition Xrotation Yrotation Zrotation
												End Site
												{
													OFFSET -2.184029 -0.187660 -0.222307
												}
											}
										}
									}
								}
								JOINT Character1_RightHandRing1
								{
									OFFSET -7.662136 0.615837 -1.366219
									CHANNELS 6 Xposition Yposition Zposition Xrotation Yrotation Zrotation
									JOINT Character1_RightHandRing2
									{
										OFFSET -2.249901 -0.592049 -0.461829
										CHANNELS 6 Xposition Yposition Zposition Xrotation Yrotation Zrotation
										JOINT Character1_RightHandRing3
										{
											OFFSET -1.521889 -0.400475 -0.248259
											CHANNELS 6 Xposition Yposition Zposition Xrotation Yrotation Zrotation
											JOINT Character1_RightHandRing4
											{
												OFFSET -2.446423 -0.395401 -0.528361
												CHANNELS 6 Xposition Yposition Zposition Xrotation Yrotation Zrotation
												End Site
												{
													OFFSET -2.430859 -0.503899 -0.507441
												}
											}
										}
									}
								}
								JOINT Character1_RightHandPinky1
								{
									OFFSET -6.585262 -0.139153 -2.765680
									CHANNELS 6 Xposition Yposition Zposition Xrotation Yrotation Zrotation
									JOINT Character1_RightHandPinky2
									{
										OFFSET -1.631413 -0.601036 -0.502742
										CHANNELS 6 Xposition Yposition Zposition Xrotation Yrotation Zrotation
										JOINT Character1_RightHandPinky3
										{
											OFFSET -1.227207 -0.469040 -0.457860
											CHANNELS 6 Xposition Yposition Zposition Xrotation Yrotation Zrotation
											JOINT Character1_RightHandPinky4
											{
												OFFSET -1.696110 -0.584045 -0.687750
												CHANNELS 6 Xposition Yposition Zposition Xrotation Yrotation Zrotation
												End Site
												{
													OFFSET -1.689350 -0.584435 -0.703875
												}
											}
										}
									}
								}
							}
						}
					}
				}
				JOINT Character1_Neck
				{
					OFFSET -0.000001 15.167763 -4.080687
					CHANNELS 6 Xposition Yposition Zposition Xrotation Yrotation Zrotation
					JOINT Character1_Head
					{
						OFFSET -0.000001 7.825302 -0.202157
						CHANNELS 6 Xposition Yposition Zposition Xrotation Yrotation Zrotation
						End Site
						{
							OFFSET -0.242856 15.320236 -2.107584
						}
					}
				}
				JOINT J_R_Mune_00
				{
					OFFSET -2.925001 2.684891 0.061887
					CHANNELS 6 Xposition Yposition Zposition Xrotation Yrotation Zrotation
					JOINT J_R_Mune_01
					{
						OFFSET -7.794388 2.801010 16.635391
						CHANNELS 6 Xposition Yposition Zposition Xrotation Yrotation Zrotation
						JOINT J_R_Mune_02
						{
							OFFSET 6.838630 -2.377007 -14.605499
							CHANNELS 6 Xposition Yposition Zposition Xrotation Yrotation Zrotation
							End Site
							{
								OFFSET -14.795670 -0.834061 -6.791919
							}
						}
					}
				}
				JOINT J_L_Mune_00
				{
					OFFSET 2.925019 2.684776 0.061883
					CHANNELS 6 Xposition Yposition Zposition Xrotation Yrotation Zrotation
					JOINT J_L_Mune_01
					{
						OFFSET 7.794374 2.801254 16.635433
						CHANNELS 6 Xposition Yposition Zposition Xrotation Yrotation Zrotation
						JOINT J_L_Mune_02
						{
							OFFSET -6.838619 -2.376648 -14.605538
							CHANNELS 3 Xrotation Yrotation Zrotation
							End Site
							{
								OFFSET 14.795649 -0.834076 -6.791907
							}
						}
					}
				}
			}
		}
	}
}
MOTION
Frames: 3
Frame Time: 0.033333
4.303300 86.362259 5.770250 -1.392358 7.683487 0.398938 7.276834 -6.057795 0.207884 6.073951 -12.638282 4.120463 -1.823137 -35.110470 -1.568846 4.745154 16.999994 0.090372 -1.031194 -37.817078 -1.726820 -7.929443 0.901118 -5.969816 0.202458 -5.287531 8.122426 -0.000004 0.000153 -0.013465 -7.276833 -6.057781 0.207878 1.213920 0.222356 -10.127574 1.823197 -35.109631 -1.587624 3.350846 -0.555040 0.571706 1.031263 -37.817833 -1.710082 -2.955969 -0.749561 9.375526 -0.202448 -5.287759 8.122276 0.000059 -0.000176 -0.222322 -0.000001 2.271324 0.818149 -0.000001 -0.000217 0.000239 -0.000001 9.085937 0.955446 -3.694409 -1.432450 0.048494 -0.000003 8.765580 -0.142871 3.373697 0.071593 1.218564 4.211491 11.612243 -3.873798 0.000108 -0.000297 -2.457627 5.543696 0.000043 -0.000008 22.531469 -4.644360 -69.771386 23.377407 -0.123481 0.033369 -13.704763 -20.182893 -1.977681 16.247721 -0.118849 0.035828 3.689535 -5.480231 14.903182 2.510404 -0.904045 2.091605 -2.573553 -1.715462 7.431983 2.570472 -1.130476 1.584520 4.641323 14.920070 2.293077 1.420854 -0.605865 0.842599 5.373671 23.291304 2.709234 2.153480 -0.757800 1.312967 -0.000490 0.001077 -0.006119 8.043894 0.989313 2.480771 3.066876 13.710538 1.532280 2.427029 0.011856 0.268371 0.423051 -0.045490 -18.415474 1.609926 0.007865 0.037314 1.369388 0.272020 -24.433053 2.129992 0.049427 0.114430 -0.003217 -0.004218 -0.000912 8.038170 1.007438 0.439338 -0.329490 1.965110 -5.254571 2.527045 -0.234429 -0.080974 -1.320190 0.340338 -23.304720 1.931320 -0.179342 -0.117767 -2.195056 0.974662 -33.186294 2.196990 0.041222 -0.161456 -0.003091 -0.003951 0.001104 7.662089 0.616510 -1.366727 -11.465090 -5.992391 -0.178531 2.249852 -0.592636 -0.461934 -0.738320 1.112394 -28.734018 1.521799 -0.400862 -0.248319 -6.831701 4.426383 -25.212392 2.446375 -0.396089 -0.528466 -0.003484 -0.001508 0.000930 6.585145 -0.139000 -2.766162 -6.188501 -18.307911 5.996279 1.631433 -0.600641 -0.502819 -3.494279 1.741913 -11.170025 1.227242 -0.468945 -0.457906 -10.862912 8.683098 -35.889383 1.696027 -0.584241 -0.687831 -0.000651 -0.000268 -0.000234 -4.211485 11.612240 -3.873798 0.000174 0.000230 -0.000108 -5.543731 0.000025 -0.000005 18.378834 -6.249814 69.708009 -23.377579 -0.123560 0.033382 -21.256776 15.839412 2.474069 -16.247566 -0.118842 0.036245 18.814852 -3.706441 -1.482645 -2.510392 -0.904096 2.091563 -7.055630 -0.039531 -13.731540 -2.579433 -1.121678 1.537424 6.117658 -19.520431 -2.673292 -1.429535 -0.616762 0.819532 7.326650 -30.564851 -3.014794 -2.167615 -0.774649 1.279518 0.009715 0.003671 -0.006342 -8.043799 0.988888 2.481293 2.009645 -9.925572 11.498760 -2.426999 0.011960 0.268471 0.065779 -0.000150 28.214086 -1.609976 0.007919 0.037372 0.000539 -0.000334 5.297908 -2.129990 0.049048 0.114511 -0.001015 -0.008836 0.004742 -8.038180 1.006856 0.439860 1.626899 0.054659 4.583699 -2.527007 -0.234058 -0.080876 -1.121642 -0.260947 37.373521 -1.931463 -0.179066 -0.117691 -1.772015 -1.184813 47.582588 -2.196980 0.042810 -0.161372 -0.000898 -0.002848 -0.003725 -7.662130 0.615843 -1.366221 -0.911366 14.832043 6.673549 -2.249899 -0.592035 -0.461835 -0.411914 -0.168521 26.029948 -1.521865 -0.400483 -0.248255 -4.277685 -1.878543 44.397162 -2.446420 -0.395377 -0.528364 0.004825 0.000955 0.007251 -6.585268 -0.139144 -2.765681 -20.673675 14.545316 1.425937 -1.631418 -0.601033 -0.502741 -4.387695 -2.335265 14.215199 -1.227210 -0.469037 -0.457861 -10.411761 -11.507394 39.806752 -1.696114 -0.584049 -0.687751 0.004207 0.003764 -0.005213 0.000001 15.167776 -4.080686 2.506105 -3.196655 -2.737831 -0.000000 7.825330 -0.202158 2.510349 -3.097522 -2.829113 -2.925000 2.684883 0.061887 0.000001 -0.000000 -0.000000 -7.794388 2.801003 16.635389 -0.000000 -0.000001 0.000000 6.838631 -2.376999 -14.605496 0.000001 0.000002 -0.000000 2.925021 2.684792 0.061882 0.000002 0.000002 -0.000001 7.794377 2.801240 16.635431 -0.000002 0.000002 0.000000 0.000001 0.000006 -0.000000 
4.868169 86.337440 5.036260 -1.828055 10.505287 1.178584 7.276832 -6.057814 0.207882 5.026779 -14.132340 3.323456 -1.823141 -35.110462 -1.568847 5.762536 15.960170 -0.501129 -1.031197 -37.817062 -1.726821 -7.911723 0.817162 -5.258714 0.202457 -5.287533 8.122427 -0.000000 0.000155 -0.013529 -7.276831 -6.057772 0.207878 -1.897769 -0.462706 -10.390170 1.823199 -35.109615 -1.587622 10.333605 -1.105374 -0.158664 1.031263 -37.817825 -1.710082 -4.846498 -0.935593 9.196935 -0.202449 -5.287760 8.122278 0.000048 -0.000222 -0.222277 -0.000001 2.271336 0.818149 0.418038 -0.031208 0.024427 -0.000001 9.085927 0.955445 -2.951401 -0.453711 0.037913 -0.000002 8.765558 -0.142864 4.115931 0.988686 0.990370 4.211488 11.612244 -3.873801 0.000146 -0.000271 -2.457624 5.543700 0.000031 -0.000006 22.509310 -5.113419 -70.222179 23.377399 -0.123473 0.033365 -14.053787 -20.194472 -1.970876 16.247723 -0.118856 0.035829 3.098498 -4.764919 15.958406 2.510396 -0.904046 2.091601 -2.573557 -1.715404 7.432053 2.570471 -1.130479 1.584526 4.641385 14.920085 2.293005 1.420838 -0.605858 0.842587 5.373668 23.291273 2.709265 2.153463 -0.757805 1.312962 -0.000577 0.001060 -0.006084 8.043885 0.989321 2.480767 3.066890 13.710577 1.532236 2.427027 0.011867 0.268373 0.423241 -0.045421 -18.415407 1.609934 0.007871 0.037315 1.369389 0.271926 -24.433060 2.130014 0.049417 0.114431 -0.003329 -0.004361 -0.001033 8.038177 1.007432 0.439333 -0.329474 1.965108 -5.254525 2.527056 -0.234446 -0.080973 -1.320226 0.340333 -23.304768 1.931316 -0.179338 -0.117770 -2.195042 0.974671 -33.186325 2.196995 0.041221 -0.161456 -0.003075 -0.003914 0.000994 7.662090 0.616505 -1.366732 -11.465033 -5.992391 -0.178428 2.249874 -0.592627 -0.461936 -0.738335 1.112422 -28.733988 1.521802 -0.400857 -0.248309 -6.831765 4.426407 -25.212513 2.446380 -0.396074 -0.528475 -0.003470 -0.001488 0.000958 6.585142 -0.138994 -2.766159 -6.188451 -18.307895 5.996362 1.631416 -0.600638 -0.502817 -3.494350 1.741863 -11.170105 1.227237 -0.468949 -0.457910 -10.862915 8.683068 -35.889301 1.696045 -0.584226 -0.687836 -0.000680 -0.000160 -0.000377 -4.211487 11.612241 -3.873802 0.000193 0.000221 -0.000115 -5.543740 0.000005 -0.000004 14.122815 -5.114653 67.674723 -23.377583 -0.123559 0.033382 -19.543111 19.578264 1.226817 -16.247578 -0.118863 0.036241 19.998736 -3.494775 -2.524873 -2.510373 -0.904114 2.091560 -7.055705 -0.039531 -13.731485 -2.579425 -1.121679 1.537414 6.117712 -19.520472 -2.673280 -1.429543 -0.616766 0.819531 7.326772 -30.564810 -3.014666 -2.167630 -0.774664 1.279525 0.009795 0.003611 -0.006259 -8.043778 0.988871 2.481294 2.009588 -9.925587 11.498712 -2.426991 0.011945 0.268471 0.065761 -0.000142 28.214005 -1.609998 0.007918 0.037373 0.000372 -0.000670 5.298083 -2.129994 0.049036 0.114506 -0.000808 -0.008532 0.004577 -8.038159 1.006866 0.439862 1.626871 0.054674 4.583772 -2.526995 -0.234062 -0.080875 -1.121677 -0.261304 37.373501 -1.931459 -0.179059 -0.117693 -1.771802 -1.184561 47.582544 -2.196985 0.042816 -0.161368 -0.000890 -0.002852 -0.003726 -7.662127 0.615838 -1.366220 -0.911535 14.831757 6.673763 -2.249900 -0.592045 -0.461835 -0.411808 -0.168196 26.029748 -1.521886 -0.400496 -0.248252 -4.277644 -1.878584 44.397182 -2.446428 -0.395393 -0.528369 0.004828 0.000951 0.007303 -6.585249 -0.139157 -2.765679 -20.673625 14.545402 1.425910 -1.631411 -0.601048 -0.502738 -4.387725 -2.335211 14.215178 -1.227197 -0.469047 -0.457855 -10.411788 -11.507463 39.806633 -1.696102 -0.584066 -0.687749 0.004184 0.003742 -0.005267 -0.000000 15.167770 -4.080690 2.440212 -3.358693 -2.647103 -0.000001 7.825322 -0.202157 2.428836 -4.352639 -2.344534 -2.925001 2.684898 0.061883 -0.000001 -0.000000 0.000000 -7.794387 2.801018 16.635391 0.000000 -0.000001 -0.000000 6.838629 -2.377007 -14.605496 -0.000000 0.000002 0.000000 2.925019 2.684799 0.061877 -0.000000 -0.000002 0.000000 7.794374 2.801263 16.635427 -0.000002 -0.000002 0.000000 -0.000000 0.000000 -0.000000 
5.588673 86.273743 4.128148 -2.379201 14.376537 2.145670 7.276833 -6.057811 0.207884 4.997229 -15.729511 2.482996 -1.823140 -35.110462 -1.568846 4.607108 14.899161 -0.917727 -1.031196 -37.817066 -1.726819 -7.029455 0.650169 -4.323470 0.202458 -5.287531 8.122427 0.000008 0.000236 -0.013523 -7.276833 -6.057780 0.207880 -4.051858 -1.365218 -10.877993 1.823194 -35.109619 -1.587621 15.563815 -2.016911 -0.939806 1.031263 -37.817825 -1.710082 -5.798343 -1.034626 9.080558 -0.202449 -5.287759 8.122277 0.000056 -0.000226 -0.222291 -0.000001 2.271340 0.818150 0.905376 -0.102193 0.078032 -0.000000 9.085941 0.955447 -2.088280 0.748312 0.005028 -0.000002 8.765553 -0.142870 4.985601 2.117530 0.731717 4.211486 11.612248 -3.873798 0.000237 -0.000267 -2.457580 5.543696 0.000024 -0.000008 22.367787 -5.773170 -70.912069 23.377409 -0.123467 0.033366 -15.035019 -20.223130 -1.951801 16.247707 -0.118860 0.035829 2.443315 -4.003503 17.109165 2.510395 -0.904046 2.091604 -2.573606 -1.715423 7.432015 2.570476 -1.130472 1.584514 4.641405 14.920067 2.293039 1.420841 -0.605861 0.842594 5.373683 23.291273 2.709214 2.153471 -0.757803 1.312962 -0.000509 0.001111 -0.006147 8.043884 0.989310 2.480769 3.066884 13.710592 1.532231 2.427031 0.011853 0.268372 0.423201 -0.045443 -18.415512 1.609944 0.007872 0.037316 1.369334 0.271990 -24.433060 2.130023 0.049427 0.114432 -0.003249 -0.004360 -0.000994 8.038170 1.007429 0.439335 -0.329475 1.965112 -5.254627 2.527056 -0.234450 -0.080974 -1.320223 0.340387 -23.304829 1.931317 -0.179352 -0.117770 -2.195004 0.974628 -33.186332 2.196994 0.041212 -0.161456 -0.003130 -0.003944 0.001102 7.662084 0.616521 -1.366728 -11.465083 -5.992402 -0.178486 2.249855 -0.592636 -0.461932 -0.738312 1.112421 -28.734005 1.521773 -0.400859 -0.248311 -6.831727 4.426374 -25.212407 2.446375 -0.396072 -0.528468 -0.003457 -0.001497 0.000924 6.585138 -0.138987 -2.766162 -6.188485 -18.307911 5.996328 1.631428 -0.600648 -0.502828 -3.494313 1.741879 -11.170044 1.227240 -0.468965 -0.457907 -10.862881 8.683077 -35.889366 1.696008 -0.584228 -0.687832 -0.000733 -0.000133 -0.000338 -4.211489 11.612232 -3.873799 0.000220 0.000215 0.000000 -5.543731 0.000023 -0.000005 9.325922 -3.430500 65.565069 -23.377584 -0.123564 0.033382 -17.392699 23.663383 -0.300149 -16.247572 -0.118846 0.036246 21.285432 -3.292086 -3.658423 -2.510396 -0.904094 2.091562 -7.055687 -0.039557 -13.731569 -2.579429 -1.121670 1.537425 6.117788 -19.520447 -2.673326 -1.429536 -0.616762 0.819539 7.326822 -30.564847 -3.014631 -2.167633 -0.774646 1.279519 0.009742 0.003605 -0.006329 -8.043799 0.988866 2.481297 2.009598 -9.925587 11.498770 -2.426992 0.011945 0.268467 0.065700 -0.000914 28.214130 -1.609995 0.007925 0.037374 0.000508 -0.000584 5.298046 -2.129995 0.049041 0.114510 -0.000714 -0.008534 0.004469 -8.038177 1.006856 0.439863 1.626883 0.054664 4.583875 -2.527013 -0.234069 -0.080873 -1.121629 -0.261832 37.373415 -1.931461 -0.179056 -0.117690 -1.771539 -1.184432 47.582537 -2.197006 0.042829 -0.161371 -0.000811 -0.002767 -0.003706 -7.662135 0.615842 -1.366218 -0.911793 14.831121 6.673912 -2.249906 -0.592044 -0.461838 -0.411633 -0.168625 26.030100 -1.521859 -0.400483 -0.248252 -4.277116 -1.877936 44.397083 -2.446424 -0.395397 -0.528362 0.004872 0.000969 0.007256 -6.585267 -0.139153 -2.765681 -20.673553 14.545397 1.425908 -1.631411 -0.601032 -0.502742 -4.387773 -2.335163 14.215190 -1.227200 -0.469049 -0.457855 -10.411861 -11.507560 39.806496 -1.696103 -0.584062 -0.687741 0.004191 0.003759 -0.005237 -0.000003 15.167770 -4.080687 2.257345 -3.819701 -2.393551 0.000000 7.825332 -0.202156 2.352913 -5.713192 -1.820414 -2.925004 2.684883 0.061887 0.000001 -0.000002 0.000001 -7.794387 2.801033 16.635387 -0.000000 -0.000001 0.000001 6.838629 -2.377014 -14.605495 -0.000000 0.000002 -0.000001 2.925018 2.684792 0.061882 0.000003 -0.000002 -0.000000 7.794373 2.801254 16.635427 0.000001 0.000002 0.000000 0.000000 0.000000 -0.000000 
